<svg xmlns="http://www.w3.org/2000/svg" viewBox="0 0 1600 900" width="1600" height="900" role="img">
  <defs><linearGradient id="ceu" x1="0" y1="0" x2="0" y2="1">
    <stop offset="0" stop-color="#0b120e"/><stop offset="0.55" stop-color="#05301b"/>
    <stop offset="1" stop-color="#0a4a2a"/></linearGradient>
  <radialGradient id="halo" cx="0.78" cy="0.2" r="0.42">
    <stop offset="0" stop-color="#0fa958" stop-opacity="0.4"/>
    <stop offset="1" stop-color="#0fa958" stop-opacity="0"/></radialGradient></defs>
  <rect width="1600" height="900" fill="url(#ceu)"/>
  <rect width="1600" height="900" fill="url(#halo)"/>
  <circle cx="1248" cy="180" r="72" fill="#d7f0e0" opacity="0.9"/>
  <circle cx="1216" cy="164" r="72" fill="#05301b"/>
  <circle cx="180" cy="90" r="2.5" fill="#ffffff" opacity="0.5"/><circle cx="420" cy="150" r="2.5" fill="#ffffff" opacity="0.5"/><circle cx="700" cy="70" r="2.5" fill="#ffffff" opacity="0.5"/><circle cx="980" cy="210" r="2.5" fill="#ffffff" opacity="0.5"/><circle cx="1420" cy="120" r="2.5" fill="#ffffff" opacity="0.5"/><circle cx="1520" cy="300" r="2.5" fill="#ffffff" opacity="0.5"/>
  <path d="M-40 700 L-40 505 L38 505 L38 591 L100 591 L100 357 L176 357 L176 383 L296 383 L296 469 L400 469 L400 515 L518 515 L518 421 L590 421 L590 387 L736 387 L736 493 L806 493 L806 599 L920 599 L920 525 L1018 525 L1018 591 L1130 591 L1130 437 L1196 437 L1196 403 L1336 403 L1336 469 L1400 469 L1400 435 L1508 435 L1508 581 L1600 581 L1600 427 L1706 427 L1640 700 L1640 900 L-40 900 Z" fill="#0b120e" fill-opacity="0.75"/>
  <rect y="700" width="1600" height="200" fill="#0b120e"/>
  <rect y="700" width="1600" height="6" fill="#0fa958" opacity="0.7"/>
  <rect x="120" y="795" width="180" height="4" fill="#0fa958" opacity="0.25"/><rect x="760" y="800" width="180" height="4" fill="#0fa958" opacity="0.25"/><rect x="1180" y="790" width="180" height="4" fill="#0fa958" opacity="0.25"/>
  <g transform="translate(1010 560) scale(1.55 1.55)">
  <g fill="none" stroke="#0fa958" stroke-opacity="1" stroke-linecap="round" stroke-linejoin="round">
    <circle cx="64" cy="16" r="9" fill="#0fa958" fill-opacity="1" stroke="none"/>
    <path d="M58 28 L46 56" stroke-width="13"/>
    <path d="M54 34 L72 28 L80 41" stroke-width="9"/>
    <path d="M52 40 L34 46 L26 35" stroke-width="9"/>
    <path d="M48 56 L64 70 L59 88 L70 92" stroke-width="12"/>
    <path d="M46 56 L30 74 L14 76 L8 68" stroke-width="12"/>
  </g></g>
  <g transform="translate(760 590) scale(1.25 1.25)">
  <g fill="none" stroke="#d7f0e0" stroke-opacity="0.55" stroke-linecap="round" stroke-linejoin="round">
    <circle cx="64" cy="16" r="9" fill="#d7f0e0" fill-opacity="0.55" stroke="none"/>
    <path d="M58 28 L46 56" stroke-width="13"/>
    <path d="M54 34 L72 28 L80 41" stroke-width="9"/>
    <path d="M52 40 L34 46 L26 35" stroke-width="9"/>
    <path d="M48 56 L64 70 L59 88 L70 92" stroke-width="12"/>
    <path d="M46 56 L30 74 L14 76 L8 68" stroke-width="12"/>
  </g></g>
  <g transform="translate(560 605) scale(1.05 1.05)">
  <g fill="none" stroke="#d7f0e0" stroke-opacity="0.3" stroke-linecap="round" stroke-linejoin="round">
    <circle cx="64" cy="16" r="9" fill="#d7f0e0" fill-opacity="0.3" stroke="none"/>
    <path d="M58 28 L46 56" stroke-width="13"/>
    <path d="M54 34 L72 28 L80 41" stroke-width="9"/>
    <path d="M52 40 L34 46 L26 35" stroke-width="9"/>
    <path d="M48 56 L64 70 L59 88 L70 92" stroke-width="12"/>
    <path d="M46 56 L30 74 L14 76 L8 68" stroke-width="12"/>
  </g></g>
  <filter id="grao" x="0" y="0" width="100%" height="100%">
    <feTurbulence type="fractalNoise" baseFrequency="0.9" numOctaves="3" seed="7"/>
    <feColorMatrix type="saturate" values="0"/>
  </filter>
  <rect width="1600" height="900" filter="url(#grao)" opacity="0.08" style="mix-blend-mode:overlay"/></svg>
